<svg xmlns="http://www.w3.org/2000/svg" viewBox="0 0 160 160" width="160" height="160" aria-label="Fox Valley Church">
  <rect width="160" height="160" rx="24" fill="oklch(0.48 0.07 148)" />
  <g fill="oklch(0.982 0.008 82)">
    <path d="M80 30c-15 6-26 18-26 36 0 16 11 30 26 36 15-6 26-20 26-36 0-18-11-30-26-36zm0 8c10 5 18 14 18 28s-8 23-18 28c-10-5-18-14-18-28s8-23 18-28z" opacity="0.9"/>
    <path d="M80 50v44M64 64h32" stroke="oklch(0.982 0.008 82)" stroke-width="4" stroke-linecap="round"/>
  </g>
  <text x="80" y="130" text-anchor="middle" fill="oklch(0.982 0.008 82)" font-family="Georgia, serif" font-style="italic" font-size="22" font-weight="500">fvc</text>
</svg>
